<svg width="190" height="127" viewBox="0 0 190 127" fill="white" xmlns="http://www.w3.org/2000/svg">
<rect x="0.5" y="0.5" width="189" height="125.667" rx="9.5" stroke="black" stroke-opacity="0.3"/>
<path opacity="0.4" d="M126.726 78.5968L116.814 55.4168C115.009 51.1735 112.318 48.7668 109.246 48.6085C106.206 48.4501 103.261 50.5718 101.013 54.6251L94.996 65.4235C93.7294 67.7035 91.9244 69.0651 89.961 69.2235C87.966 69.4135 85.971 68.3685 84.356 66.3101L83.6594 65.4235C81.411 62.6051 78.6244 61.2435 75.7744 61.5285C72.9244 61.8135 70.486 63.7768 68.871 66.9751L63.3927 77.9002C61.4294 81.8585 61.6194 86.4501 63.931 90.1868C66.2427 93.9235 70.2644 96.1718 74.666 96.1718H115.073C119.316 96.1718 123.274 94.0502 125.618 90.5035C128.024 86.9568 128.404 82.4918 126.726 78.5968Z" fill="#8A080C"/>
<path d="M79.0708 51.8732C81.9095 51.8732 84.6319 50.7455 86.6392 48.7383C88.6464 46.731 89.7741 44.0086 89.7741 41.1699C89.7741 38.3312 88.6464 35.6088 86.6392 33.6015C84.6319 31.5942 81.9095 30.4666 79.0708 30.4666C76.2321 30.4666 73.5096 31.5942 71.5024 33.6015C69.4951 35.6088 68.3674 38.3312 68.3674 41.1699C68.3674 44.0086 69.4951 46.731 71.5024 48.7383C73.5096 50.7455 76.2321 51.8732 79.0708 51.8732Z" fill="#8A080C"/>
</svg>
