<svg width="73" height="61" viewBox="0 0 73 61" fill="none" xmlns="http://www.w3.org/2000/svg">
<path d="M36.125 4.24183C48.5685 4.05755 60.9448 6.09995 72.6693 10.2726C50.7427 -4.43203 23.4306 1.04032 20.0058 1.82208C9.29684 4.30387 2.21133 8.29956 2.3106 9.26745C3.12733 15.0055 4.35062 20.6782 5.97124 26.2429C7.42647 23.4523 8.32422 20.405 8.61435 17.2712C8.70121 16.4026 8.61435 10.9923 8.61435 10.9923C10.6866 10.2726 23.3438 4.50242 36.125 4.24183Z" fill="white"/>
<path d="M1.75245 15.8561C0.821784 11.0042 1.09478 10.3961 0.648057 10.5202C0.201334 10.6443 0.722513 15.6451 0.945874 18.5364C1.70282 28.3643 3.42766 33.0549 3.42766 33.0549C3.7503 32.7074 3.70066 31.6651 3.82475 30.2753C3.94884 28.8855 4.79265 27.5081 4.53206 26.9745C3.35721 23.3349 2.42858 19.6203 1.75245 15.8561Z" fill="white"/>
<path d="M22.4255 27.9924V36.2444C19.7452 38.4656 17.6605 40.178 17.2882 40.4758C17.098 40.6388 16.8792 40.765 16.643 40.8481C16.8397 40.6655 16.9924 40.4406 17.0897 40.1904C17.2054 39.8351 17.2027 39.4519 17.0818 39.0983C16.961 38.7447 16.7286 38.4399 16.4196 38.2298L16.1094 38.0189V27.9924H22.4255Z" fill="white"/>
<path d="M31.1736 18.9338V28.9851L24.8574 34.2341V18.9338H31.1736Z" fill="white"/>
<path d="M39.9223 11.3518V23.0162C38.8451 23.0077 37.8025 23.3965 36.9938 24.1082C36.8077 24.2819 35.4923 25.3491 33.5938 26.9747V11.3518H39.9223Z" fill="white"/>
<path d="M54.6887 42.7217C54.6887 43.0692 55.4084 42.7218 55.7558 42.6225C56.3044 42.5216 56.8439 42.3763 57.369 42.1882C57.8182 42.0211 58.2373 41.7822 58.6099 41.4809C58.877 41.2763 59.0935 41.013 59.2428 40.7115C59.4907 40.0527 59.6209 39.3555 59.6274 38.6516C59.6274 38.1304 59.6274 37.6093 59.6274 37.1005C59.6794 36.626 59.8995 36.1858 60.2479 35.8596C60.535 35.5335 60.9097 35.2966 61.3275 35.1771C61.799 35.0158 62.2829 34.9041 62.7545 34.7552C62.8647 34.7126 62.9657 34.6495 63.0523 34.5691C63.1392 34.4946 63.1764 34.3705 63.0523 34.3085C62.8227 34.1652 62.5712 34.0604 62.3078 33.9983C62.0475 33.9797 61.7863 33.9797 61.526 33.9983C60.9693 34.0011 60.4151 34.072 59.8756 34.2092L59.1931 34.5194C58.9517 34.6194 58.7192 34.7398 58.4982 34.8793C57.8796 35.3728 57.443 36.0583 57.2573 36.8275C57.1042 37.3696 56.9135 37.9003 56.6865 38.4158C56.5807 38.6546 56.4061 38.8565 56.1851 38.9957C55.9641 39.135 55.7067 39.2052 55.4456 39.1976C55.2815 39.2089 55.1172 39.177 54.9692 39.1052C54.8212 39.0334 54.6945 38.924 54.6018 38.7881L54.3164 38.3538C54.7521 39.7663 54.8791 41.2559 54.6887 42.7217Z" fill="white"/>
<path d="M61.3892 60.4169H61.2155C60.744 60.4169 60.2724 60.3053 59.8009 60.2804C58.7254 60.2225 57.6459 60.1729 56.5621 60.1315H55.8796L51.8964 60.0571C51.7102 60.0571 51.6234 60.0571 51.5986 59.7965C51.5737 59.5359 51.5986 59.3126 51.5241 59.0644C51.4959 58.9403 51.4543 58.8196 51.4 58.7045C51.1599 58.2502 50.8206 57.8558 50.4073 57.5505C50.3131 57.4806 50.2417 57.3844 50.2019 57.274C50.1622 57.1636 50.1559 57.044 50.1839 56.93C50.2832 56.4709 50.3825 56.0118 50.5066 55.565C50.6307 55.1183 50.7672 54.8081 50.8912 54.4234C50.8972 54.3491 50.8972 54.2744 50.8912 54.2001H50.6555C50.5314 54.2001 50.3949 54.2745 50.2708 54.2745H50.0971H49.1044C48.8934 54.2745 48.67 54.2745 48.4467 54.2745H48.062C48.0305 54.289 48.0022 54.3096 47.9787 54.3352C47.9553 54.3608 47.9372 54.3908 47.9255 54.4234C47.9255 54.6716 48.0496 54.9074 48.0992 55.1556C48.2109 55.6891 48.3102 56.2351 48.4219 56.7811V56.8804C48.4439 57.0077 48.4439 57.1378 48.4219 57.2651C48.3342 57.5851 48.2179 57.8966 48.0744 58.1957C47.9916 58.3391 47.9481 58.5017 47.9481 58.6673C47.9481 58.8328 47.9916 58.9955 48.0744 59.1388C48.1985 59.387 48.335 59.6228 48.4715 59.871C48.608 60.1191 48.4715 60.1067 48.335 60.1067C47.6773 60.1067 47.0321 60.1067 46.3744 60.1067H40.9393H38.1597C37.837 60.1067 37.7998 60.1067 37.775 59.7345C37.7744 59.2837 37.6213 58.8464 37.3407 58.4936C37.1421 58.2702 36.9064 58.0592 36.6954 57.8483C36.5695 57.7207 36.4533 57.5838 36.348 57.4388C36.3322 57.4037 36.3241 57.3656 36.3241 57.3271C36.3241 57.2886 36.3322 57.2506 36.348 57.2154C36.6085 56.7191 36.8567 56.2103 37.1297 55.714L37.9363 54.2869C38.0976 54.0139 38.2589 53.7285 38.4078 53.4431C38.5568 53.1577 38.6684 52.9344 38.7801 52.6738C39.0655 52.0533 39.3385 51.4329 39.6115 50.8124C39.6525 50.7353 39.698 50.6607 39.748 50.5891H39.8101C39.8101 50.6635 39.8845 50.7504 39.8101 50.8124C39.8101 51.3088 39.6984 51.7927 39.6239 52.2767C39.6239 52.4752 39.5495 52.6614 39.5247 52.8599C39.5152 52.8876 39.5121 52.9171 39.5154 52.9462C39.5187 52.9753 39.5284 53.0033 39.5438 53.0282C39.5593 53.0532 39.58 53.0743 39.6046 53.0903C39.6291 53.1062 39.6569 53.1165 39.686 53.1205L40.6787 53.3563C41.0137 53.4307 41.3488 53.5176 41.6838 53.5672C41.9173 53.6104 42.1538 53.6353 42.3911 53.6417H42.6145C43.119 53.5001 43.594 53.2689 44.0167 52.9592H44.1904C44.389 52.9592 44.4014 52.9592 44.3766 52.7358C44.3766 52.3139 44.2897 51.892 44.2276 51.4949C44.2186 51.3738 44.1756 51.2576 44.1036 51.1599C43.7933 50.8372 43.4707 50.5394 43.1481 50.2168C42.8254 49.8942 42.5524 49.6832 42.2918 49.3854C41.6906 48.7327 41.2638 47.9388 41.051 47.0773C40.9459 46.6704 40.9459 46.2434 41.051 45.8364C41.1378 45.5386 41.2123 45.2532 41.3115 44.9678C41.4108 44.6824 41.4729 44.67 41.5473 44.5211H41.5349C41.5349 44.6079 41.5969 44.6948 41.5349 44.7693C41.4689 45.255 41.5243 45.7496 41.6962 46.2087C41.9998 47.1135 42.5244 47.9281 43.2225 48.5788C43.4211 48.7898 43.6444 49.0007 43.8678 49.1993C44.0911 49.3978 44.5503 49.8445 44.9225 50.1175C45.095 50.2531 45.2387 50.4217 45.3452 50.6135C45.4517 50.8052 45.519 51.0163 45.543 51.2343C45.6174 51.5694 45.6423 51.9168 45.7291 52.2395C45.7601 52.4462 45.8505 52.6396 45.9893 52.796C46.128 52.9524 46.3093 53.0651 46.5109 53.1205C46.8176 53.2143 47.134 53.2725 47.454 53.2942H49.4394H50.4445C50.8241 53.2657 51.2014 53.2118 51.5737 53.1329C52.0403 53.0803 52.4764 52.8753 52.8146 52.5497C52.8639 52.2831 52.8639 52.0097 52.8146 51.7431C52.8011 51.7088 52.7793 51.6784 52.7511 51.6546C52.723 51.6307 52.6894 51.6143 52.6533 51.6066C52.5292 51.6066 52.1446 51.6066 52.1446 51.4825C52.1446 51.3584 52.2562 51.2095 52.5913 51.1971C52.9263 51.1847 52.9884 51.1102 53.0008 50.8869C53.0008 50.4153 53.0628 49.2365 53.1249 48.5416C53.1496 48.017 53.2499 47.4988 53.4227 47.0029C53.4434 46.935 53.4771 46.8717 53.5219 46.8167C53.7205 46.581 53.9439 46.3452 54.13 46.1094C54.2417 45.9497 54.3373 45.7793 54.4154 45.6007C54.5393 45.0827 54.5393 44.5427 54.4154 44.0247C54.4154 43.7021 54.5891 43.1065 54.5519 42.7838C54.8662 41.2822 54.7191 39.7207 54.13 38.3042C52.7898 36.3188 47.0693 28.0792 44.6744 25.8953C43.4248 24.6817 41.7624 23.9858 40.021 23.947C39.0851 23.8933 38.1634 24.1946 37.44 24.7909C36.9436 25.3244 19.0623 40.1159 17.809 41.1334C17.4776 41.4119 17.0872 41.6113 16.6674 41.7167C16.2703 41.8035 15.8732 41.9028 15.4265 41.9524C15.2323 41.9648 15.0375 41.9648 14.8433 41.9524H14.3469C14.2791 41.9535 14.2131 41.9303 14.1608 41.8871C14.1085 41.8439 14.0733 41.7835 14.0615 41.7167C14.034 41.6493 14.0301 41.5747 14.0504 41.5049C14.0707 41.4351 14.1139 41.3741 14.1732 41.332C14.3992 41.1606 14.6354 41.0032 14.8805 40.8604C15.2279 40.6619 15.6002 40.5006 15.9352 40.2896C16.0801 40.2012 16.1898 40.0653 16.2455 39.905C16.3093 39.7228 16.3098 39.5244 16.2467 39.3419C16.1836 39.1595 16.0608 39.0037 15.898 38.8998C15.7225 38.7647 15.5308 38.6521 15.3272 38.5648C14.991 38.4183 14.6472 38.2899 14.2973 38.1801L13.4907 37.9816C13.0564 37.8947 12.6221 37.7954 12.1753 37.721C12.1154 37.7126 12.0587 37.6888 12.0108 37.6518C11.9629 37.6148 11.9255 37.5659 11.9023 37.51C11.8105 37.2931 11.6984 37.0853 11.5673 36.8896C11.2307 36.3115 10.7787 35.8089 10.2395 35.4129C9.95193 35.2071 9.63365 35.048 9.29646 34.9414C8.82641 34.8503 8.34813 34.8088 7.86943 34.8173H6.83948H5.065C4.89128 34.8173 4.80441 34.8793 4.87887 35.0406C4.9828 35.3064 5.10727 35.5636 5.25114 35.81C5.48263 36.2342 5.79453 36.6094 6.1694 36.9144C6.40761 37.1302 6.66054 37.3293 6.92635 37.51C7.8007 37.9954 8.78054 38.2596 9.7804 38.2794H10.314C10.7951 38.3053 11.2776 38.2803 11.7534 38.2049H11.9272H12.1505L13.6148 38.7013C13.7093 38.7531 13.8092 38.7947 13.9126 38.8254C14.249 38.9036 14.5713 39.0333 14.8681 39.2101C14.9058 39.2241 14.9396 39.2472 14.9665 39.2772C14.9934 39.3072 15.0125 39.3434 15.0223 39.3825C15.0321 39.4216 15.0322 39.4624 15.0226 39.5016C15.013 39.5407 14.9941 39.577 14.9673 39.6071C14.8742 39.6894 14.7746 39.7641 14.6695 39.8305C14.2228 40.0787 13.7761 40.302 13.3418 40.5626C13.1149 40.6932 12.9196 40.8721 12.7695 41.0865C12.6194 41.3009 12.5182 41.5457 12.4731 41.8035C12.4054 42.0496 12.3994 42.3085 12.4556 42.5575C12.5119 42.8064 12.6288 43.0376 12.7958 43.2306C13.0212 43.4781 13.3223 43.6439 13.652 43.7021C13.8676 43.752 14.0883 43.777 14.3097 43.7765C14.5329 43.7889 14.7566 43.7889 14.9798 43.7765H15.1163C15.4513 43.7765 15.7739 43.7021 16.109 43.6649H16.1834C16.2254 43.6618 16.2672 43.6722 16.3029 43.6945C16.3386 43.7168 16.3663 43.7499 16.382 43.789L16.1834 43.9503C15.6728 44.4664 15.2307 45.0461 14.8681 45.6751C14.5399 46.2608 14.3015 46.8924 14.1608 47.5489C14.0401 48.3845 13.8744 49.2129 13.6644 50.0307C13.5974 50.2247 13.4966 50.4054 13.3666 50.5642C13.1446 50.8523 12.8952 51.1183 12.6221 51.3584C12.225 51.6935 11.8031 52.0161 11.3812 52.3263C11.1578 52.4876 10.8848 52.5993 10.7731 52.8847L10.6118 53.2694L9.95413 54.7833C9.84245 55.0811 9.74318 55.3913 9.6315 55.6891C9.51982 55.987 9.45777 56.1234 9.37091 56.3468C9.28405 56.5702 9.23441 56.7315 9.18477 56.9176C9.13514 57.1038 9.0855 57.3271 9.03587 57.5257C8.84886 58.0631 8.77699 58.6339 8.82491 59.2009C8.84491 59.2922 8.87837 59.38 8.92419 59.4615L9.27164 60.0447L8.96141 60.1191H8.57674L6.69058 60.2184L3.31534 60.4045C3.19125 60.4045 3.06716 60.4045 2.93066 60.4045V60.4914H3.09198C3.50148 60.4914 3.92338 60.6031 4.33288 60.6279C5.2015 60.6279 6.07013 60.7396 6.93876 60.7644L12.4235 60.9257H15.0294H20.6879C23.0083 60.9257 25.3164 60.9257 27.6369 61.0002H36.9188H41.386H46.7342L52.0081 60.9878H53.4351C54.7504 60.9878 56.0782 60.9878 57.4059 60.8885C58.7337 60.7892 59.8133 60.7396 61.0169 60.6651C61.1435 60.648 61.2681 60.6189 61.3892 60.5783V60.4169ZM47.8635 51.83L47.8014 51.892C47.8014 51.892 47.3795 51.892 47.2802 51.892C47.181 51.892 47.0569 51.892 47.0445 51.7555C47.0392 51.7268 47.0399 51.6974 47.0465 51.669C47.0532 51.6406 47.0657 51.6139 47.0832 51.5906C47.1006 51.5673 47.1228 51.5479 47.1482 51.5335C47.1735 51.5192 47.2016 51.5103 47.2306 51.5073H47.2927C47.5408 51.5073 47.6277 51.5073 47.8014 51.6562C47.8348 51.7079 47.8521 51.7684 47.8511 51.83H47.8635ZM45.7043 44.8561C45.7043 44.6948 45.7043 44.5211 45.7043 44.3598C45.7043 44.1984 45.7043 44.1736 45.8408 44.1736C45.8859 44.1652 45.9322 44.1652 45.9773 44.1736C46.1096 44.2713 46.2341 44.3792 46.3496 44.4963C46.4861 44.6328 46.6226 44.7817 46.7467 44.9306C46.8708 45.0795 47.1313 45.3153 47.2927 45.5262C47.3878 45.6281 47.4584 45.7504 47.4993 45.8837C47.5402 46.017 47.5501 46.1578 47.5284 46.2956C47.5284 46.2956 47.5284 46.3948 47.454 46.4445L47.3671 46.2583C47.3367 46.1628 47.2818 46.077 47.2077 46.0095C47.1336 45.9419 47.0431 45.8951 46.9452 45.8737C46.6083 45.7198 46.2809 45.5457 45.9649 45.3525C45.8776 45.3044 45.8064 45.2317 45.7601 45.1434C45.7137 45.0552 45.6944 44.9553 45.7043 44.8561ZM26.9172 59.8461H25.5274H21.7178H16.2827H13.4535H12.9199C12.8427 59.8569 12.7643 59.8369 12.7017 59.7905C12.639 59.7441 12.5971 59.6749 12.5848 59.598C12.5096 59.3417 12.3734 59.1075 12.1877 58.9155C12.1549 58.8729 12.1124 58.8389 12.0637 58.8162L10.86 58.506C10.6366 58.4191 10.6366 58.3943 10.7607 58.2082C11.133 57.6497 11.4928 57.0913 11.8775 56.5454C12.2622 55.9994 12.5476 55.5899 12.8826 55.1059C12.9447 55.0191 12.9943 54.9198 13.0688 54.8329C13.2469 54.6257 13.4935 54.4892 13.7637 54.4482L15.0046 54.2621L15.8112 54.0636C16.2703 53.9271 16.7418 53.7906 17.201 53.6168C17.6601 53.4431 18.2929 53.1949 18.8141 52.9468C19.3353 52.6986 19.6331 52.4876 20.055 52.2519C20.4769 52.0161 21.0105 51.619 21.5069 51.346C22.0032 51.073 22.3134 50.9613 22.7478 50.7752C23.3193 50.5571 23.9232 50.4355 24.5346 50.4153C24.7525 50.3824 24.9721 50.3617 25.1923 50.3533C25.3157 50.3346 25.4412 50.3346 25.5646 50.3533L25.8128 50.4402V50.527C25.6573 50.5591 25.4997 50.5798 25.3412 50.5891C24.9724 50.6117 24.6127 50.7132 24.2865 50.8869C23.9952 51.0369 23.717 51.2112 23.4551 51.408C23.4031 51.4361 23.3577 51.4746 23.3216 51.5213C23.2855 51.568 23.2596 51.6217 23.2456 51.679C23.2316 51.7363 23.2297 51.7959 23.2401 51.854C23.2506 51.912 23.2731 51.9673 23.3062 52.0161C23.4596 52.3158 23.5403 52.6473 23.5419 52.984C23.5419 53.592 23.5419 54.2249 23.4551 54.7957C23.4398 54.9389 23.4614 55.0837 23.5179 55.2162C23.5743 55.3487 23.6638 55.4645 23.7777 55.5526C24.1534 55.8392 24.5099 56.1501 24.8449 56.4833C25.2908 56.9299 25.7054 57.4067 26.0858 57.9103C26.458 58.3943 26.7558 58.9279 27.0909 59.4366C27.1357 59.5039 27.1653 59.5801 27.1777 59.66C27.1033 59.7469 27.0413 59.8461 26.9172 59.8461ZM34.3625 58.9403C34.4656 59.0988 34.5568 59.2647 34.6355 59.4366C34.6729 59.5324 34.6729 59.6387 34.6355 59.7345C34.6355 59.7345 34.4742 59.7345 34.3998 59.7345H33.4319H30.8508C30.6647 59.7345 30.5902 59.5731 30.5033 59.449C30.341 59.1848 30.1305 58.9533 29.8829 58.7666C29.6523 58.6262 29.3941 58.5373 29.126 58.506C28.9001 58.4736 28.6764 58.4281 28.4559 58.3695C28.3194 58.3695 28.2697 58.2826 28.2325 58.1461C28.1597 57.9198 28.0684 57.6998 27.9595 57.4884L27.215 56.0242C27.1405 55.8753 27.0288 55.7512 26.942 55.6023C26.8551 55.4534 26.942 55.4286 26.942 55.3417C27.3142 54.9446 27.6617 54.5351 28.0091 54.1008C28.3401 53.6621 28.5959 53.1715 28.7661 52.6489C28.8283 52.3975 28.8534 52.1383 28.8405 51.8796C28.8371 51.6269 28.7677 51.3796 28.6393 51.1619C28.5109 50.9443 28.3279 50.7639 28.1084 50.6387C28.0698 50.6001 28.0402 50.5535 28.0216 50.5022C28.063 50.4735 28.1092 50.4525 28.1581 50.4402C28.2928 50.4572 28.4256 50.4862 28.5551 50.527C28.6129 50.5328 28.6711 50.5328 28.7289 50.527C29.3778 50.6237 30.0116 50.803 30.615 51.0606C30.9727 51.199 31.3209 51.3606 31.6574 51.5445C31.7069 51.5502 31.7568 51.5502 31.8063 51.5445C31.8185 51.4915 31.8185 51.4363 31.8063 51.3832C31.7194 51.1226 31.6202 50.8745 31.5209 50.6139V50.527C31.4092 49.981 31.3099 49.435 31.1734 48.889C30.9838 47.929 30.9419 46.9456 31.0493 45.9729C31.0963 45.2461 31.2381 44.5286 31.4712 43.8386C31.5953 43.4663 31.707 43.0816 31.8311 42.7218C31.9552 42.3619 31.9924 42.3495 32.0793 42.1758H32.1537C32.1657 42.3162 32.1657 42.4573 32.1537 42.5977C32.1537 43.1065 32.0296 43.6028 31.9924 44.1116C31.9552 44.6204 31.8807 45.4393 31.8807 46.1094C31.8742 46.6385 31.9242 47.1668 32.0296 47.6854C32.1837 48.3693 32.3742 49.0445 32.6005 49.708C32.7618 50.254 32.9603 50.8 33.134 51.3584C33.3078 51.9168 33.4691 52.2767 33.6056 52.7482C33.7421 53.2198 33.891 53.7285 34.0275 54.2249C34.2136 54.9198 34.3998 55.6271 34.5983 56.3344C34.7314 56.832 34.6646 57.362 34.4122 57.8111C34.3557 57.9352 34.3101 58.0639 34.2757 58.1957C34.2248 58.3162 34.205 58.4474 34.218 58.5775C34.231 58.7076 34.2765 58.8323 34.3501 58.9403H34.3625ZM35.6034 34.2092C35.6034 34.1472 35.7027 34.0603 35.7772 34.0231C36.0673 33.9017 36.3876 33.8714 36.6954 33.9363C37.4128 33.9873 38.1149 34.1681 38.7677 34.4698C39.2579 34.6917 39.6846 35.033 40.0086 35.4626C40.1756 35.6625 40.2755 35.91 40.294 36.1699C40.2943 36.5351 40.2695 36.9 40.2196 37.2618C40.1235 37.7486 40.1491 38.2516 40.294 38.7261C40.38 38.9793 40.5569 39.1915 40.7904 39.3217C41.2447 39.5609 41.7539 39.6765 42.267 39.6568C42.7386 39.6568 43.2101 39.6568 43.6941 39.6568C43.7879 39.6604 43.8799 39.6845 43.9635 39.7274C44.047 39.7703 44.1203 39.8309 44.178 39.905C44.3949 40.1769 44.5384 40.5 44.5949 40.8432C44.6514 41.1865 44.6189 41.5384 44.5006 41.8656C44.4299 42.0244 44.3176 42.1612 44.1757 42.2617C44.0337 42.3621 43.8674 42.4225 43.6941 42.4364C43.5767 42.4701 43.4561 42.4909 43.3342 42.4984H42.3787C41.6466 42.4984 40.902 42.424 40.1823 42.3247C39.4916 42.2638 38.8307 42.0149 38.2713 41.605C37.8618 41.3042 37.5788 40.8619 37.4772 40.3641C37.3942 39.6773 37.4236 38.9816 37.564 38.3042C37.6385 37.783 37.8246 37.2743 37.9487 36.7531C37.98 36.5308 37.98 36.3053 37.9487 36.083C37.9487 35.8224 37.7254 35.6611 37.5516 35.4998C36.9996 35.0844 36.4144 34.7151 35.802 34.3954C35.7312 34.3537 35.6782 34.2874 35.6531 34.2092H35.6034Z" fill="white"/>
<path d="M71.3173 11.513C68.7363 10.1108 57.2952 5.75526 41.6475 5.14722C25.9999 4.53918 19.8574 8.08814 19.8574 8.08814C46.9834 3.32311 66.4903 15.7196 66.5027 16.4145C66.8998 34.4448 56.5755 52.9589 56.5755 52.9589C55.6938 52.335 54.7737 51.7672 53.8207 51.2589C53.7896 51.3503 53.748 51.4377 53.6966 51.5195C53.715 51.7051 53.715 51.8922 53.6966 52.0779C53.7224 52.4247 53.611 52.7678 53.3864 53.0334L53.101 53.2815C54.7615 54.6232 55.9381 56.4708 56.4514 58.5429C72.0867 42.1259 71.9998 14.4291 72.0619 13.0641C72.1239 11.6991 71.64 11.7116 71.3173 11.513Z" fill="white"/>
</svg>
