<svg width="108" height="83" viewBox="0 0 108 83" fill="none" xmlns="http://www.w3.org/2000/svg">
<path d="M12.312 65.33C13.0048 65.534 13.6095 65.9636 14.0302 66.5506C14.4509 67.1376 14.6634 67.8484 14.634 68.57C14.6617 69.1367 14.5536 69.7019 14.3188 70.2185C14.084 70.7351 13.7292 71.1881 13.284 71.5399C12.8099 71.9033 12.2657 72.1644 11.6856 72.3067C10.9542 72.4854 10.2028 72.5689 9.45 72.5552H0V72.2311C0.190488 72.1887 0.365904 72.0954 0.5076 71.9611C0.61152 71.8255 0.661536 71.6563 0.648 71.486V59.8112C0.661536 59.6408 0.61152 59.4716 0.5076 59.336C0.366978 59.2024 0.190679 59.1123 0 59.0768L0 58.7528H9.3528C10.0784 58.7349 10.8035 58.8038 11.5128 58.958C12.0354 59.0775 12.5256 59.3097 12.9492 59.6384C13.3573 59.9718 13.6807 60.3971 13.8928 60.8796C14.1049 61.362 14.1998 61.8878 14.1696 62.414C14.1951 63.0316 14.0308 63.6422 13.6986 64.1636C13.3665 64.685 12.8826 65.092 12.312 65.33ZM3.672 64.25H8.964C9.54517 64.3026 10.1287 64.1784 10.638 63.8936C10.8219 63.7434 10.967 63.5512 11.061 63.3331C11.155 63.115 11.1951 62.8776 11.178 62.6408C11.1999 62.4081 11.1652 62.1737 11.0768 61.9574C10.9884 61.7411 10.849 61.5494 10.6704 61.3988C10.1515 61.1076 9.55678 60.9796 8.964 61.0316H3.6612L3.672 64.25ZM3.672 70.2979H8.7912C9.49838 70.3466 10.206 70.2088 10.8432 69.8984C11.0851 69.7364 11.2797 69.513 11.4068 69.2511C11.534 68.9892 11.5892 68.6982 11.5668 68.408C11.5747 68.1211 11.5082 67.837 11.3739 67.5834C11.2395 67.3298 11.0418 67.1153 10.8 66.9608C10.1619 66.6535 9.45426 66.5194 8.748 66.572H3.6612L3.672 70.2979Z" fill="white"/>
<path d="M17.3668 71.5077V59.8005C17.3756 59.6323 17.3217 59.4669 17.2156 59.3361C17.0794 59.2023 16.9064 59.1121 16.7188 59.0769V58.7529H21.0388V59.0769C20.8481 59.1125 20.6718 59.2025 20.5312 59.3361C20.4289 59.4684 20.3789 59.6337 20.3907 59.8005V71.5077C20.3775 71.6831 20.4316 71.8569 20.542 71.9937C20.68 72.125 20.8521 72.2148 21.0388 72.2529V72.5769H16.7188V72.2529C16.9054 72.2086 17.0769 72.1155 17.2156 71.9829C17.3233 71.8489 17.3772 71.6794 17.3668 71.5077Z" fill="white"/>
<path d="M35.8018 67.5981H32.3998C32.23 67.5885 32.062 67.6381 31.9246 67.7385C31.7943 67.8815 31.7048 68.0568 31.6654 68.2461H31.3198V65.0061H31.6438C31.6814 65.1993 31.771 65.3786 31.903 65.5245C32.0418 65.6211 32.2096 65.6669 32.3782 65.6541H38.923V65.9781C38.7343 66.0169 38.5614 66.1109 38.4262 66.2481C38.3175 66.3817 38.2635 66.5515 38.275 66.7233V69.5529C38.2671 69.7226 38.3166 69.89 38.4154 70.0281C38.5561 70.1617 38.7324 70.2518 38.923 70.2873V70.5465C36.6317 71.9569 34.0094 72.7391 31.3198 72.8145C29.3758 72.9183 27.4516 72.3794 25.8442 71.2809C24.9806 70.6391 24.287 69.7957 23.8239 68.8244C23.3609 67.8531 23.1423 66.7832 23.1874 65.7081C23.1455 64.7048 23.3373 63.7054 23.7478 62.7889C24.1583 61.8723 24.7761 61.0637 25.5526 60.4269C27.2599 59.1185 29.3769 58.46 31.525 58.5693C32.2758 58.5621 33.0252 58.6345 33.7606 58.7853C34.5718 58.9631 35.3666 59.2088 36.1366 59.5197C36.4492 59.6575 36.7804 59.7485 37.1194 59.7897C37.3085 59.7738 37.4852 59.6893 37.6162 59.5521L37.9078 59.7033L36.277 62.9649L35.9854 62.8137C35.985 62.6515 35.9557 62.4906 35.899 62.3385C35.7959 62.2014 35.672 62.0811 35.5318 61.9821C34.9827 61.604 34.3671 61.3329 33.7174 61.1829C32.9827 60.9757 32.2236 60.8667 31.4602 60.8589C30.1571 60.8085 28.8809 61.239 27.8746 62.0685C27.3468 62.5124 26.9274 63.0711 26.6485 63.7019C26.3696 64.3327 26.2386 65.0189 26.2654 65.7081C26.2427 66.3753 26.3719 67.0389 26.6432 67.6488C26.9145 68.2587 27.3208 68.799 27.8314 69.2289C28.8976 70.0904 30.2421 70.5321 31.6114 70.4709C32.3717 70.4683 33.1292 70.3777 33.8686 70.2009C34.5433 70.0551 35.194 69.8151 35.8018 69.4881V67.5981Z" fill="white"/>
<path d="M58.7848 65.3302C59.4796 65.5322 60.0868 65.961 60.5096 66.5482C60.9323 67.1354 61.1464 67.8472 61.1176 68.5702C61.1431 69.1377 61.033 69.7032 60.7963 70.2197C60.5597 70.7362 60.2033 71.1889 59.7568 71.5402C59.2882 71.9057 58.7469 72.1671 58.1692 72.307C57.4343 72.4862 56.6792 72.5697 55.9228 72.5554H46.4404V72.2314C46.6271 72.1871 46.7985 72.0939 46.9372 71.9614C47.045 71.8273 47.0989 71.6579 47.0884 71.4862V59.8114C47.0989 59.6397 47.045 59.4702 46.9372 59.3362C46.801 59.2023 46.6281 59.1121 46.4404 59.077V58.753H55.8364C56.5621 58.7335 57.2874 58.8024 57.9964 58.9582C58.5197 59.0757 59.0104 59.3081 59.4328 59.6386C59.8443 59.9697 60.1707 60.3943 60.3848 60.8771C60.599 61.3599 60.6947 61.8869 60.664 62.4142C60.6894 63.0346 60.5225 63.6478 60.1862 64.1697C59.8498 64.6917 59.3604 65.097 58.7848 65.3302ZM50.1448 64.2502H55.4368C56.0213 64.301 56.6078 64.177 57.1216 63.8938C57.3043 63.7431 57.4478 63.5504 57.54 63.3323C57.6321 63.1142 57.6701 62.877 57.6508 62.641C57.675 62.4092 57.6424 62.175 57.5558 61.9586C57.4693 61.7422 57.3314 61.5501 57.154 61.399C56.6305 61.1094 56.033 60.9816 55.4368 61.0318H50.1448V64.2502ZM50.1448 70.2982H55.264C55.9713 70.3478 56.6791 70.21 57.316 69.8986C57.5596 69.7383 57.7554 69.5152 57.8828 69.2529C58.0101 68.9905 58.0643 68.6987 58.0396 68.4082C58.0543 68.125 57.9953 67.8428 57.8685 67.5892C57.7417 67.3356 57.5514 67.1191 57.316 66.961C56.6783 66.6527 55.9703 66.5186 55.264 66.5722H50.1448V70.2982Z" fill="white"/>
<path d="M77.2525 59.8113V67.5657C77.3258 68.7037 77.0426 69.8361 76.4425 70.8057C75.4705 72.1161 73.4617 72.7713 70.4161 72.7713C68.6689 72.8642 66.9284 72.4915 65.3725 71.6913C64.7194 71.3083 64.2165 70.714 63.9469 70.0065C63.6808 69.1985 63.553 68.3514 63.5689 67.5009V59.8113C63.5768 59.6417 63.5274 59.4743 63.4285 59.3361C63.2856 59.2058 63.1103 59.1163 62.9209 59.0769V58.7529H67.2409V59.0769C67.0532 59.1121 66.8803 59.2023 66.7441 59.3361C66.6363 59.4702 66.5824 59.6396 66.5929 59.8113V66.7125C66.5759 67.3022 66.6193 67.8921 66.7225 68.4729C66.7991 68.832 66.9707 69.1639 67.2193 69.4341C67.6714 69.8306 68.1995 70.1308 68.7714 70.3164C69.3432 70.5021 69.947 70.5694 70.5457 70.5141C71.1444 70.5694 71.7482 70.5021 72.32 70.3164C72.8919 70.1308 73.42 69.8306 73.8721 69.4341C74.1177 69.1633 74.2856 68.8312 74.3581 68.4729C74.4721 67.8932 74.5264 67.3033 74.5201 66.7125V59.8113C74.5336 59.641 74.4836 59.4717 74.3797 59.3361C74.2391 59.2025 74.0628 59.1125 73.8721 59.0769V58.7529H77.9437V59.0769C77.7543 59.1163 77.579 59.2058 77.4361 59.3361C77.3166 59.4654 77.251 59.6353 77.2525 59.8113Z" fill="white"/>
<path d="M83.7755 70.2981H92.2643C92.4361 70.3097 92.606 70.2556 92.7395 70.1469C92.872 70.0082 92.9652 69.8368 93.0095 69.6501H93.3335V73.2249H93.0095C92.967 73.0344 92.8737 72.859 92.7395 72.7173C92.6044 72.6125 92.4347 72.5623 92.2643 72.5769H80.1035V72.2529C80.294 72.2104 80.4694 72.1171 80.6111 71.9829C80.715 71.8473 80.7651 71.678 80.7515 71.5077V59.8113C80.7651 59.641 80.715 59.4717 80.6111 59.3361C80.472 59.2004 80.295 59.11 80.1035 59.0769V58.7529H84.4235V59.0769C84.2328 59.1125 84.0565 59.2025 83.9159 59.3361C83.812 59.4717 83.762 59.641 83.7755 59.8113V70.2981Z" fill="white"/>
<path d="M98.4424 70.2981H106.92C107.092 70.3086 107.262 70.2547 107.396 70.1469C107.529 70.0107 107.62 69.8378 107.655 69.6501H107.979V73.2249H107.655C107.622 73.0334 107.531 72.8564 107.396 72.7173C107.26 72.6134 107.091 72.5634 106.92 72.5769H94.7812V72.2529C94.9705 72.2071 95.1451 72.1143 95.2889 71.9829C95.3877 71.8448 95.4372 71.6774 95.4292 71.5077V59.8113C95.4372 59.6417 95.3877 59.4743 95.2889 59.3361C95.1459 59.2058 94.9706 59.1163 94.7812 59.0769V58.7529H99.1013V59.0769C98.9119 59.1163 98.7366 59.2058 98.5936 59.3361C98.4897 59.4717 98.4397 59.641 98.4533 59.8113L98.4424 70.2981Z" fill="white"/>
<path d="M0 82.081H0.594V76.8214H0V76.2598H1.8144V76.8214H1.2096V82.081H1.8144V82.6426H0V82.081Z" fill="white"/>
<path d="M5.69141 82.081H6.08021C6.20981 82.081 6.28541 82.081 6.28541 81.8866V76.2598H6.85781L10.0978 80.7958C10.3246 81.109 10.6162 81.6274 10.6162 81.6274C10.6162 81.6274 10.6162 81.1306 10.6162 80.7958V76.8106C10.6162 76.4218 10.7782 76.2598 11.167 76.2598H11.8798V76.8214H11.491C11.4642 76.8181 11.437 76.8208 11.4114 76.8293C11.3858 76.8378 11.3623 76.8518 11.3427 76.8704C11.3231 76.8889 11.3079 76.9116 11.298 76.9367C11.2882 76.9618 11.284 76.9888 11.2858 77.0158V82.621H10.6594L7.41941 78.085C7.19261 77.7826 6.89021 77.2642 6.89021 77.2642C6.92627 77.5364 6.9479 77.8104 6.95501 78.085V82.081C6.95501 82.4698 6.78221 82.6318 6.39341 82.6318H5.69141V82.081Z" fill="white"/>
<path d="M17.7665 76.8214H16.2005C16.0709 76.8214 16.0061 76.8754 16.0061 77.0158V77.4478H15.4229V76.7782C15.4229 76.3894 15.5525 76.2598 15.9413 76.2598H20.2613C20.6501 76.2598 20.7689 76.3894 20.7689 76.7782V77.4478H20.1857V77.0158C20.1857 76.8754 20.1209 76.8214 19.9913 76.8214H18.3605V82.621H17.7233L17.7665 76.8214Z" fill="white"/>
<path d="M24.9368 76.8214H24.3428V76.2598H27.9824C28.3712 76.2598 28.5332 76.4218 28.5332 76.8106V77.4478H27.9392V77.0158C27.9427 76.9894 27.9402 76.9626 27.9317 76.9374C27.9232 76.9121 27.9089 76.8892 27.8901 76.8704C27.8713 76.8516 27.8484 76.8374 27.8232 76.8289C27.798 76.8204 27.7711 76.8178 27.7448 76.8214H25.5848V79.1434H27.9716V79.705H25.574V81.865C25.574 82.0054 25.6388 82.0594 25.7684 82.0594H28.004C28.1336 82.0594 28.1984 82.0594 28.1984 81.865V81.4438H28.7924V82.081C28.7924 82.4698 28.6304 82.6318 28.2416 82.6318H25.4876C25.0988 82.6318 24.9368 82.4698 24.9368 82.081V76.8214Z" fill="white"/>
<path d="M33.0696 76.8212H32.4756V76.2596H35.1756C35.4184 76.2438 35.6618 76.2799 35.8897 76.3654C36.1175 76.4509 36.3246 76.5838 36.4972 76.7553C36.6698 76.9269 36.8039 77.1332 36.8907 77.3605C36.9776 77.5878 37.0151 77.831 37.0008 78.074C37.0275 78.4562 36.9187 78.8356 36.6936 79.1457C36.4684 79.4557 36.1413 79.6766 35.7696 79.7696C35.8624 79.8316 35.937 79.9174 35.9856 80.018L36.9036 81.8324C37.0008 82.0268 37.1304 82.0376 37.3572 82.0376H37.4868V82.5992H37.206C36.6876 82.5992 36.5364 82.5344 36.3204 82.124L35.4132 80.2988C35.2404 79.964 35.1216 79.9208 34.7652 79.9208H33.6852V82.6208H33.0588L33.0696 76.8212ZM35.1108 79.3808C35.2809 79.3913 35.4512 79.3645 35.6098 79.3022C35.7683 79.2398 35.9113 79.1435 36.0287 79.02C36.1461 78.8964 36.2349 78.7487 36.2891 78.5871C36.3432 78.4255 36.3612 78.2541 36.342 78.0848C36.3598 77.9182 36.3408 77.7497 36.2864 77.5913C36.232 77.4328 36.1435 77.2882 36.0271 77.1677C35.9107 77.0472 35.7693 76.9537 35.6129 76.8938C35.4564 76.834 35.2887 76.8092 35.1216 76.8212H33.696V79.3808H35.1108Z" fill="white"/>
<path d="M41.04 82.081H41.4396C41.466 82.0845 41.4928 82.082 41.5181 82.0735C41.5433 82.0649 41.5662 82.0507 41.585 82.0319C41.6038 82.0131 41.618 81.9902 41.6265 81.965C41.635 81.9398 41.6376 81.9129 41.634 81.8866V76.2598H42.2172L45.4572 80.7958C45.6732 81.109 45.9648 81.6274 45.9648 81.6274C45.9648 81.6274 45.9648 81.1306 45.9648 80.7958V76.8106C45.9648 76.4218 46.1268 76.2598 46.5156 76.2598H47.1852V76.8214H46.7964C46.7701 76.8178 46.7432 76.8204 46.718 76.8289C46.6928 76.8374 46.6699 76.8516 46.6511 76.8704C46.6323 76.8892 46.6181 76.9121 46.6096 76.9374C46.601 76.9626 46.5985 76.9894 46.602 77.0158V82.621H46.0188L42.7788 78.085C42.552 77.7826 42.2496 77.2642 42.2496 77.2642C42.2496 77.2642 42.3036 77.7502 42.3036 78.085V82.081C42.3036 82.4698 42.1416 82.6318 41.7528 82.6318H41.04V82.081Z" fill="white"/>
<path d="M50.7598 82.081H50.8678C51.0406 82.081 51.1378 82.081 51.2026 81.8866L53.2762 76.2814H53.9566L56.041 81.8866C56.1058 82.0594 56.1922 82.081 56.365 82.081H56.473V82.6426H56.1598C55.7062 82.6426 55.5658 82.5562 55.4038 82.1242L54.853 80.623H52.3258L51.7642 82.081C51.6022 82.513 51.4726 82.5994 51.019 82.5994H50.7598V82.081ZM54.7126 80.0614L53.8378 77.761C53.7298 77.4586 53.5894 76.9402 53.5894 76.9402C53.5894 76.9402 53.449 77.4586 53.341 77.761L52.5094 80.029L54.7126 80.0614Z" fill="white"/>
<path d="M62.1327 76.8214H60.5559C60.4263 76.8214 60.3615 76.8754 60.3615 77.0158V77.4478H59.7783V76.7782C59.7783 76.3894 59.9079 76.2598 60.2967 76.2598H64.6167C65.0055 76.2598 65.1351 76.3894 65.1351 76.7782V77.4478H64.5411V77.0158C64.5411 76.8754 64.4763 76.8214 64.3467 76.8214H62.7699V82.621H62.1327V76.8214Z" fill="white"/>
<path d="M68.7529 82.081H69.3469V76.8214H68.7529V76.2598H70.5673V76.8214H69.9625V82.081H70.5673V82.6426H68.7529V82.081Z" fill="white"/>
<path d="M77.6521 76.1516C78.5114 76.1516 79.3355 76.493 79.9431 77.1006C80.5508 77.7082 80.8921 78.5323 80.8921 79.3916C80.8921 80.2509 80.5508 81.075 79.9431 81.6826C79.3355 82.2902 78.5114 82.6316 77.6521 82.6316C76.7928 82.6316 75.9687 82.2902 75.3611 81.6826C74.7535 81.075 74.4121 80.2509 74.4121 79.3916C74.4121 78.5323 74.7535 77.7082 75.3611 77.1006C75.9687 76.493 76.7928 76.1516 77.6521 76.1516ZM77.6521 82.1348C78.001 82.125 78.3446 82.0466 78.6632 81.9039C78.9818 81.7613 79.2692 81.5573 79.5089 81.3035C79.7486 81.0497 79.936 80.7512 80.0603 80.425C80.1846 80.0988 80.2434 79.7513 80.2333 79.4024C80.2333 78.7178 79.9614 78.0613 79.4773 77.5772C78.9932 77.0932 78.3367 76.8212 77.6521 76.8212C76.9675 76.8212 76.311 77.0932 75.8269 77.5772C75.3429 78.0613 75.0709 78.7178 75.0709 79.4024C75.0579 79.7521 75.1147 80.1008 75.238 80.4283C75.3612 80.7557 75.5484 81.0554 75.7887 81.3097C76.029 81.5641 76.3175 81.768 76.6374 81.9097C76.9573 82.0514 77.3023 82.1279 77.6521 82.1348Z" fill="white"/>
<path d="M84.6826 82.081H85.0714C85.201 82.081 85.2766 82.081 85.2766 81.8866V76.2598H85.849L89.089 80.7958C89.305 81.109 89.6074 81.6274 89.6074 81.6274C89.6074 81.6274 89.6074 81.1306 89.6074 80.7958V76.8106C89.6074 76.4218 89.7694 76.2598 90.1582 76.2598H90.8278V76.8214H90.439C90.4122 76.8181 90.385 76.8208 90.3594 76.8293C90.3338 76.8378 90.3103 76.8518 90.2907 76.8704C90.2712 76.8889 90.2559 76.9116 90.2461 76.9367C90.2362 76.9618 90.232 76.9888 90.2338 77.0158V82.621H89.6398L86.3998 78.085C86.173 77.7826 85.8706 77.2642 85.8706 77.2642C85.8706 77.2642 85.9246 77.7502 85.9246 78.085V82.081C85.9246 82.4698 85.7626 82.6318 85.3738 82.6318H84.7042L84.6826 82.081Z" fill="white"/>
<path d="M94.3701 82.081H94.4889C94.6509 82.081 94.7589 82.081 94.8129 81.8866L96.8973 76.2814H97.5777L99.6621 81.8866C99.7269 82.0594 99.8133 82.081 99.9861 82.081H100.094V82.6426H99.8025C99.3489 82.6426 99.2193 82.5562 99.0573 82.1242L98.5065 80.623H95.9793L95.4177 82.081C95.2557 82.513 95.1261 82.5994 94.6725 82.5994H94.3701V82.081ZM98.3337 80.0614L97.4913 77.761C97.3833 77.4586 97.2429 76.9402 97.2429 76.9402C97.2429 76.9402 97.1133 77.4586 97.0053 77.761L96.1197 80.0398L98.3337 80.0614Z" fill="white"/>
<path d="M104.263 77.0158C104.265 76.9888 104.26 76.9618 104.251 76.9367C104.241 76.9116 104.226 76.8889 104.206 76.8704C104.186 76.8518 104.163 76.8378 104.137 76.8293C104.112 76.8208 104.084 76.8181 104.058 76.8214H103.68V76.2598H104.349C104.738 76.2598 104.9 76.4218 104.9 76.8106V81.865C104.9 82.0054 104.976 82.0594 105.105 82.0594H107.265C107.395 82.0594 107.47 82.0594 107.47 81.865V81.4438H108V82.081C108 82.4698 107.838 82.6318 107.449 82.6318H104.814C104.425 82.6318 104.263 82.4698 104.263 82.081V77.0158Z" fill="white"/>
<path d="M53.6116 3.53247C64.4417 3.37208 75.2132 5.14966 85.4176 8.78127C66.334 -4.01673 42.5632 0.746067 39.5824 1.42647C30.262 3.58647 24.0952 7.06407 24.1816 7.90647C24.8924 12.9005 25.9571 17.8377 27.3676 22.6809C28.6341 20.2521 29.4154 17.5999 29.668 14.8725C29.7436 14.1165 29.668 9.40767 29.668 9.40767C31.4716 8.78127 42.4876 3.75927 53.6116 3.53247Z" fill="white"/>
<path d="M23.6949 13.6411C22.8849 9.41834 23.1225 8.88914 22.7337 8.99714C22.3449 9.10514 22.7985 13.4575 22.9929 15.9739C23.6517 24.5275 25.1529 28.6099 25.1529 28.6099C25.4337 28.3075 25.3905 27.4003 25.4985 26.1907C25.6065 24.9811 26.3409 23.7823 26.1141 23.3179C25.0916 20.1502 24.2834 16.9173 23.6949 13.6411Z" fill="white"/>
<path d="M41.6876 24.2037V31.3857C39.3548 33.3189 37.5404 34.8093 37.2164 35.0685C37.0509 35.2104 36.8605 35.3202 36.6548 35.3925C36.8261 35.2336 36.959 35.0379 37.0436 34.8201C37.1444 34.5109 37.142 34.1773 37.0368 33.8696C36.9316 33.5619 36.7294 33.2966 36.4604 33.1137L36.1904 32.9301V24.2037H41.6876Z" fill="white"/>
<path d="M49.3019 16.3197V25.0677L43.8047 29.6361V16.3197H49.3019Z" fill="white"/>
<path d="M56.9162 9.72083V19.8728C55.9786 19.8654 55.0712 20.2038 54.3674 20.8232C54.2054 20.9744 53.0606 21.9032 51.4082 23.318V9.72083H56.9162Z" fill="white"/>
<path d="M69.7683 37.0232C69.7683 37.3256 70.3947 37.0232 70.6971 36.9368C71.1746 36.849 71.6441 36.7225 72.1011 36.5588C72.4921 36.4134 72.8568 36.2054 73.1811 35.9432C73.4136 35.7651 73.602 35.536 73.7319 35.2736C73.9477 34.7002 74.0611 34.0934 74.0667 33.4808C74.0667 33.0272 74.0667 32.5736 74.0667 32.1308C74.1119 31.7178 74.3035 31.3347 74.6067 31.0508C74.8567 30.767 75.1828 30.5608 75.5463 30.4568C75.9567 30.3164 76.3779 30.2192 76.7883 30.0896C76.8842 30.0525 76.9722 29.9975 77.0475 29.9276C77.1231 29.8628 77.1555 29.7548 77.0475 29.7008C76.8477 29.5761 76.6288 29.4848 76.3995 29.4308C76.173 29.4147 75.9456 29.4147 75.7191 29.4308C75.2346 29.4333 74.7523 29.4949 74.2827 29.6144L73.6887 29.8844C73.4786 29.9714 73.2763 30.0762 73.0839 30.1976C72.5455 30.6271 72.1656 31.2237 72.0039 31.8932C71.8707 32.365 71.7047 32.8269 71.5071 33.2756C71.415 33.4834 71.2631 33.6591 71.0708 33.7803C70.8784 33.9015 70.6544 33.9626 70.4271 33.956C70.2843 33.9658 70.1413 33.9381 70.0125 33.8756C69.8836 33.813 69.7734 33.7179 69.6927 33.5996L69.4443 33.2216C69.8236 34.4509 69.934 35.7474 69.7683 37.0232Z" fill="white"/>
<path d="M75.6005 52.4239H75.4493C75.0389 52.4239 74.6285 52.3267 74.2181 52.3051C73.2821 52.2547 72.3425 52.2115 71.3993 52.1755H70.8053L67.3385 52.1107C67.1765 52.1107 67.1009 52.1107 67.0793 51.8839C67.0577 51.6571 67.0793 51.4627 67.0145 51.2467C66.9899 51.1387 66.9537 51.0337 66.9065 50.9335C66.6975 50.5381 66.4022 50.1948 66.0425 49.9291C65.9605 49.8682 65.8983 49.7845 65.8637 49.6885C65.8291 49.5924 65.8237 49.4883 65.8481 49.3891C65.9345 48.9895 66.0209 48.5899 66.1289 48.2011C66.2369 47.8123 66.3557 47.5423 66.4637 47.2075C66.4688 47.1428 66.4688 47.0778 66.4637 47.0131H66.2585C66.1505 47.0131 66.0317 47.0779 65.9237 47.0779H65.7725H64.9085C64.7249 47.0779 64.5305 47.0779 64.3361 47.0779H64.0013C63.9738 47.0905 63.9492 47.1085 63.9288 47.1307C63.9084 47.153 63.8927 47.1791 63.8825 47.2075C63.8825 47.4235 63.9905 47.6287 64.0337 47.8447C64.1309 48.3091 64.2173 48.7843 64.3145 49.2595V49.3459C64.3336 49.4567 64.3336 49.5699 64.3145 49.6807C64.2382 49.9592 64.137 50.2303 64.0121 50.4907C63.94 50.6155 63.9021 50.757 63.9021 50.9011C63.9021 51.0452 63.94 51.1867 64.0121 51.3115C64.1201 51.5275 64.2389 51.7327 64.3577 51.9487C64.4765 52.1647 64.3577 52.1539 64.2389 52.1539C63.6665 52.1539 63.1049 52.1539 62.5325 52.1539H57.8021H55.3829C55.1021 52.1539 55.0697 52.1539 55.0481 51.8299C55.0475 51.4376 54.9143 51.0569 54.6701 50.7499C54.4973 50.5555 54.2921 50.3719 54.1085 50.1883C53.9989 50.0773 53.8978 49.9581 53.8061 49.8319C53.7924 49.8013 53.7853 49.7682 53.7853 49.7347C53.7853 49.7012 53.7924 49.6681 53.8061 49.6375C54.0329 49.2055 54.2489 48.7627 54.4865 48.3307L55.1885 47.0887C55.3289 46.8511 55.4693 46.6027 55.5989 46.3543C55.7285 46.1059 55.8257 45.9115 55.9229 45.6847C56.1713 45.1447 56.4089 44.6047 56.6465 44.0647C56.6821 43.9976 56.7218 43.9326 56.7653 43.8703H56.8193C56.8193 43.9351 56.8841 44.0107 56.8193 44.0647C56.8193 44.4967 56.7221 44.9179 56.6573 45.3391C56.6573 45.5119 56.5925 45.6739 56.5709 45.8467C56.5627 45.8708 56.5599 45.8965 56.5628 45.9218C56.5657 45.9472 56.5742 45.9715 56.5876 45.9932C56.601 46.0149 56.619 46.0333 56.6404 46.0472C56.6618 46.0611 56.686 46.0701 56.7113 46.0735L57.5753 46.2787C57.8669 46.3435 58.1585 46.4191 58.4501 46.4623C58.6533 46.4999 58.8591 46.5215 59.0657 46.5271H59.2601C59.6992 46.4039 60.1126 46.2027 60.4805 45.9331H60.6317C60.8045 45.9331 60.8153 45.9331 60.7937 45.7387C60.7937 45.3715 60.7181 45.0043 60.6641 44.6587C60.6562 44.5533 60.6188 44.4522 60.5561 44.3671C60.2861 44.0863 60.0053 43.8271 59.7245 43.5463C59.4437 43.2655 59.2061 43.0819 58.9793 42.8227C58.456 42.2546 58.0845 41.5637 57.8993 40.8139C57.8078 40.4597 57.8078 40.0881 57.8993 39.7339C57.9749 39.4747 58.0397 39.2263 58.1261 38.9779C58.2125 38.7295 58.2665 38.7187 58.3313 38.5891H58.3205C58.3205 38.6647 58.3745 38.7403 58.3205 38.8051C58.263 39.2279 58.3113 39.6583 58.4609 40.0579C58.7251 40.8454 59.1817 41.5544 59.7893 42.1207C59.9621 42.3043 60.1565 42.4879 60.3509 42.6607C60.5453 42.8335 60.9449 43.2223 61.2689 43.4599C61.419 43.5779 61.544 43.7246 61.6367 43.8915C61.7295 44.0584 61.788 44.2421 61.8089 44.4319C61.8737 44.7235 61.8953 45.0259 61.9709 45.3067C61.9978 45.4867 62.0765 45.6549 62.1973 45.7911C62.3181 45.9272 62.4758 46.0253 62.6513 46.0735C62.9182 46.1551 63.1936 46.2058 63.4721 46.2247H65.2001H66.0749C66.4052 46.1999 66.7336 46.153 67.0577 46.0843C67.4637 46.0385 67.8433 45.8601 68.1377 45.5767C68.1805 45.3447 68.1805 45.1067 68.1377 44.8747C68.1259 44.8449 68.1069 44.8184 68.0824 44.7976C68.0579 44.7769 68.0287 44.7626 67.9973 44.7559C67.8893 44.7559 67.5545 44.7559 67.5545 44.6479C67.5545 44.5399 67.6517 44.4103 67.9433 44.3995C68.2349 44.3887 68.2889 44.3239 68.2997 44.1295C68.2997 43.7191 68.3537 42.6931 68.4077 42.0883C68.4292 41.6318 68.5165 41.1807 68.6669 40.7491C68.6849 40.69 68.7142 40.635 68.7533 40.5871C68.9261 40.3819 69.1205 40.1767 69.2825 39.9715C69.3797 39.8325 69.4629 39.6841 69.5309 39.5287C69.6387 39.0779 69.6387 38.6079 69.5309 38.1571C69.5309 37.8763 69.6821 37.3579 69.6497 37.0771C69.9232 35.7702 69.7952 34.4111 69.2825 33.1783C68.1161 31.4503 63.1373 24.2791 61.0529 22.3783C59.9653 21.3221 58.5185 20.7164 57.0029 20.6827C56.1883 20.6359 55.3861 20.8982 54.7565 21.4171C54.3245 21.8815 38.7617 34.7551 37.6709 35.6407C37.3825 35.8831 37.0427 36.0566 36.6773 36.1483C36.3317 36.2239 35.9861 36.3103 35.5973 36.3535C35.4282 36.3643 35.2587 36.3643 35.0897 36.3535H34.6577C34.5986 36.3544 34.5412 36.3342 34.4957 36.2966C34.4502 36.259 34.4195 36.2064 34.4093 36.1483C34.3854 36.0897 34.382 36.0248 34.3996 35.964C34.4173 35.9032 34.4549 35.8502 34.5065 35.8135C34.7032 35.6644 34.9088 35.5273 35.1221 35.4031C35.4245 35.2303 35.7485 35.0899 36.0401 34.9063C36.1662 34.8294 36.2616 34.711 36.3101 34.5715C36.3657 34.4129 36.3661 34.2403 36.3112 34.0815C36.2563 33.9227 36.1493 33.7871 36.0077 33.6967C35.855 33.5791 35.688 33.4811 35.5109 33.4051C35.2183 33.2776 34.919 33.1658 34.6145 33.0703L33.9125 32.8975C33.5345 32.8219 33.1565 32.7355 32.7677 32.6707C32.7155 32.6634 32.6662 32.6427 32.6245 32.6105C32.5828 32.5783 32.5503 32.5357 32.5301 32.4871C32.4502 32.2983 32.3525 32.1175 32.2385 31.9471C31.9455 31.444 31.5521 31.0065 31.0829 30.6619C30.8326 30.4828 30.5556 30.3443 30.2621 30.2515C29.853 30.1723 29.4367 30.1361 29.0201 30.1435H28.1237H26.5793C26.4281 30.1435 26.3525 30.1975 26.4173 30.3379C26.5077 30.5692 26.6161 30.793 26.7413 31.0075C26.9428 31.3767 27.2142 31.7032 27.5405 31.9687C27.7478 32.1566 27.9679 32.3298 28.1993 32.4871C28.9603 32.9096 29.8131 33.1395 30.6833 33.1567H31.1477C31.5664 33.1792 31.9863 33.1575 32.4005 33.0919H32.5517H32.7461L34.0205 33.5239C34.1028 33.569 34.1897 33.6052 34.2797 33.6319C34.5725 33.7 34.853 33.8129 35.1113 33.9667C35.1441 33.9789 35.1736 33.999 35.1969 34.0251C35.2203 34.0513 35.237 34.0827 35.2455 34.1167C35.254 34.1508 35.2541 34.1864 35.2458 34.2204C35.2374 34.2545 35.2209 34.286 35.1977 34.3123C35.1166 34.3839 35.0299 34.4489 34.9385 34.5067C34.5497 34.7227 34.1609 34.9171 33.7829 35.1439C33.5855 35.2576 33.4154 35.4132 33.2848 35.5998C33.1541 35.7865 33.0661 35.9995 33.0269 36.2239C32.9679 36.438 32.9627 36.6634 33.0116 36.8801C33.0606 37.0967 33.1623 37.298 33.3077 37.4659C33.5039 37.6813 33.7659 37.8257 34.0529 37.8763C34.2406 37.9197 34.4326 37.9415 34.6253 37.9411C34.8195 37.9518 35.0142 37.9518 35.2085 37.9411H35.3273C35.6189 37.9411 35.8997 37.8763 36.1913 37.8439H36.2561C36.2926 37.8413 36.329 37.8503 36.3601 37.8697C36.3912 37.8891 36.4152 37.9179 36.4289 37.9519L36.2561 38.0923C35.8117 38.5415 35.4269 39.0461 35.1113 39.5935C34.8257 40.1033 34.6182 40.653 34.4957 41.2243C34.3906 41.9515 34.2464 42.6726 34.0637 43.3843C34.0054 43.5532 33.9176 43.7104 33.8045 43.8487C33.6112 44.0994 33.3942 44.3309 33.1565 44.5399C32.8109 44.8315 32.4437 45.1123 32.0765 45.3823C31.8821 45.5227 31.6445 45.6199 31.5473 45.8683L31.4069 46.2031L30.8345 47.5207C30.7373 47.7799 30.6509 48.0499 30.5537 48.3091C30.4565 48.5683 30.4025 48.6871 30.3269 48.8815C30.2513 49.0759 30.2081 49.2163 30.1649 49.3783C30.1217 49.5403 30.0785 49.7347 30.0353 49.9075C29.8725 50.3753 29.81 50.872 29.8517 51.3655C29.8691 51.445 29.8982 51.5214 29.9381 51.5923L30.2405 52.0999L29.9705 52.1647H29.6357L27.9941 52.2511L25.0565 52.4131C24.9485 52.4131 24.8405 52.4131 24.7217 52.4131V52.4887H24.8621C25.2185 52.4887 25.5857 52.5859 25.9421 52.6075C26.6981 52.6075 27.4541 52.7047 28.2101 52.7263L32.9837 52.8667H35.2517H40.1765C42.1961 52.8667 44.2049 52.8667 46.2245 52.9315H54.3029H58.1909H62.8457L67.4357 52.9207H68.6777C69.8225 52.9207 70.9781 52.9207 72.1337 52.8343C73.2893 52.7479 74.2289 52.7047 75.2765 52.6399C75.3866 52.625 75.4951 52.5997 75.6005 52.5643V52.4239ZM63.8285 44.9503L63.7745 45.0043C63.7745 45.0043 63.4073 45.0043 63.3209 45.0043C63.2345 45.0043 63.1265 45.0043 63.1157 44.8855C63.1111 44.8606 63.1117 44.8349 63.1175 44.8102C63.1233 44.7855 63.1341 44.7623 63.1493 44.742C63.1646 44.7217 63.1838 44.7048 63.2059 44.6923C63.228 44.6798 63.2524 44.6721 63.2777 44.6695H63.3317C63.5477 44.6695 63.6233 44.6695 63.7745 44.7991C63.8036 44.8441 63.8186 44.8967 63.8177 44.9503H63.8285ZM61.9493 38.8807C61.9493 38.7403 61.9493 38.5891 61.9493 38.4487C61.9493 38.3083 61.9493 38.2867 62.0681 38.2867C62.1073 38.2794 62.1476 38.2794 62.1869 38.2867C62.302 38.3717 62.4103 38.4656 62.5109 38.5675C62.6297 38.6863 62.7485 38.8159 62.8565 38.9455C62.9645 39.0751 63.1913 39.2803 63.3317 39.4639C63.4145 39.5526 63.476 39.659 63.5115 39.775C63.5471 39.891 63.5558 40.0136 63.5369 40.1335C63.5369 40.1335 63.5369 40.2199 63.4721 40.2631L63.3965 40.1011C63.3701 40.018 63.3222 39.9433 63.2577 39.8845C63.1933 39.8257 63.1145 39.785 63.0293 39.7663C62.736 39.6324 62.4511 39.4809 62.1761 39.3127C62.1001 39.2708 62.0381 39.2076 61.9978 39.1308C61.9575 39.054 61.9406 38.967 61.9493 38.8807ZM45.5981 51.9271H44.3885H41.0729H36.3425H33.8801H33.4157C33.3485 51.9364 33.2803 51.919 33.2258 51.8786C33.1713 51.8383 33.1347 51.7781 33.1241 51.7111C33.0586 51.4881 32.94 51.2842 32.7785 51.1171C32.7499 51.0801 32.7129 51.0504 32.6705 51.0307L31.6229 50.7607C31.4285 50.6851 31.4285 50.6635 31.5365 50.5015C31.8605 50.0155 32.1737 49.5295 32.5085 49.0543C32.8433 48.5791 33.0917 48.2227 33.3833 47.8015C33.4373 47.7259 33.4805 47.6395 33.5453 47.5639C33.7003 47.3835 33.9149 47.2647 34.1501 47.2291L35.2301 47.0671L35.9321 46.8943C36.3317 46.7755 36.7421 46.6567 37.1417 46.5055C37.5413 46.3543 38.0921 46.1383 38.5457 45.9223C38.9993 45.7063 39.2585 45.5227 39.6257 45.3175C39.9929 45.1123 40.4573 44.7667 40.8893 44.5291C41.3213 44.2915 41.5913 44.1943 41.9693 44.0323C42.4668 43.8425 42.9923 43.7366 43.5245 43.7191C43.7141 43.6904 43.9052 43.6724 44.0969 43.6651C44.2043 43.6488 44.3135 43.6488 44.4209 43.6651L44.6369 43.7407V43.8163C44.5016 43.8442 44.3644 43.8622 44.2265 43.8703C43.9055 43.89 43.5924 43.9784 43.3085 44.1295C43.0549 44.2601 42.8129 44.4118 42.5849 44.5831C42.5397 44.6075 42.5001 44.6411 42.4687 44.6817C42.4373 44.7223 42.4148 44.7691 42.4026 44.8189C42.3904 44.8688 42.3887 44.9207 42.3978 44.9712C42.4069 45.0217 42.4265 45.0698 42.4553 45.1123C42.5888 45.3731 42.6591 45.6617 42.6605 45.9547C42.6605 46.4839 42.6605 47.0347 42.5849 47.5315C42.5716 47.6561 42.5904 47.7821 42.6395 47.8974C42.6887 48.0128 42.7665 48.1136 42.8657 48.1903C43.1926 48.4397 43.5029 48.7103 43.7945 49.0003C44.1826 49.389 44.5434 49.804 44.8745 50.2423C45.1985 50.6635 45.4577 51.1279 45.7493 51.5707C45.7883 51.6293 45.814 51.6956 45.8249 51.7651C45.7601 51.8407 45.7061 51.9271 45.5981 51.9271ZM52.0781 51.1387C52.1678 51.2767 52.2472 51.4211 52.3157 51.5707C52.3482 51.654 52.3482 51.7466 52.3157 51.8299C52.3157 51.8299 52.1753 51.8299 52.1105 51.8299H51.2681H49.0217C48.8597 51.8299 48.7949 51.6895 48.7193 51.5815C48.578 51.3515 48.3948 51.15 48.1793 50.9875C47.9786 50.8653 47.7539 50.788 47.5205 50.7607C47.3239 50.7326 47.1292 50.6929 46.9373 50.6419C46.8185 50.6419 46.7753 50.5663 46.7429 50.4475C46.6795 50.2505 46.6001 50.0591 46.5053 49.8751L45.8573 48.6007C45.7925 48.4711 45.6953 48.3631 45.6197 48.2335C45.5441 48.1039 45.6197 48.0823 45.6197 48.0067C45.9437 47.6611 46.2461 47.3047 46.5485 46.9267C46.8365 46.5449 47.0591 46.1179 47.2073 45.6631C47.2614 45.4443 47.2833 45.2187 47.2721 44.9935C47.269 44.7736 47.2087 44.5583 47.0969 44.3689C46.9851 44.1795 46.8259 44.0225 46.6349 43.9135C46.6013 43.8799 46.5755 43.8394 46.5593 43.7947C46.5953 43.7698 46.6356 43.7515 46.6781 43.7407C46.7953 43.7555 46.911 43.7808 47.0237 43.8163C47.074 43.8214 47.1246 43.8214 47.1749 43.8163C47.7396 43.9005 48.2913 44.0565 48.8165 44.2807C49.1278 44.4011 49.4308 44.5418 49.7237 44.7019C49.7667 44.7068 49.8102 44.7068 49.8533 44.7019C49.8639 44.6557 49.8639 44.6077 49.8533 44.5615C49.7777 44.3347 49.6913 44.1187 49.6049 43.8919V43.8163C49.5077 43.3411 49.4213 42.8659 49.3025 42.3907C49.1374 41.5551 49.101 40.6993 49.1945 39.8527C49.2354 39.2201 49.3588 38.5956 49.5617 37.9951C49.6697 37.6711 49.7669 37.3363 49.8749 37.0231C49.9829 36.7099 50.0153 36.6991 50.0909 36.5479H50.1557C50.1661 36.6701 50.1661 36.7929 50.1557 36.9151C50.1557 37.3579 50.0477 37.7899 50.0153 38.2327C49.9829 38.6755 49.9181 39.3883 49.9181 39.9715C49.9124 40.432 49.9559 40.8918 50.0477 41.3431C50.1817 41.9383 50.3476 42.526 50.5445 43.1035C50.6849 43.5787 50.8577 44.0539 51.0089 44.5399C51.1601 45.0259 51.3005 45.3391 51.4193 45.7495C51.5381 46.1599 51.6677 46.6027 51.7865 47.0347C51.9485 47.6395 52.1105 48.2551 52.2833 48.8707C52.3991 49.3038 52.341 49.7651 52.1213 50.1559C52.0722 50.2639 52.0324 50.3759 52.0025 50.4907C51.9582 50.5955 51.941 50.7098 51.9523 50.823C51.9636 50.9362 52.0032 51.0447 52.0673 51.1387H52.0781ZM53.1581 29.6143C53.1581 29.5603 53.2445 29.4847 53.3093 29.4523C53.5618 29.3466 53.8406 29.3203 54.1085 29.3767C54.7328 29.4211 55.3439 29.5785 55.9121 29.8411C56.3387 30.0342 56.7101 30.3312 56.9921 30.7051C57.1375 30.8791 57.2244 31.0945 57.2405 31.3207C57.2408 31.6386 57.2191 31.9562 57.1757 32.2711C57.0921 32.6948 57.1144 33.1325 57.2405 33.5455C57.3153 33.7658 57.4693 33.9506 57.6725 34.0639C58.0679 34.2721 58.5111 34.3727 58.9577 34.3555C59.3681 34.3555 59.7785 34.3555 60.1997 34.3555C60.2814 34.3587 60.3614 34.3796 60.4341 34.417C60.5069 34.4543 60.5706 34.507 60.6209 34.5715C60.8096 34.8082 60.9345 35.0894 60.9837 35.3881C61.0329 35.6868 61.0046 35.9932 60.9017 36.2779C60.8401 36.4161 60.7424 36.5352 60.6189 36.6226C60.4953 36.7101 60.3505 36.7626 60.1997 36.7747C60.0976 36.8041 59.9925 36.8222 59.8865 36.8287H59.0549C58.4177 36.8287 57.7697 36.7639 57.1433 36.6775C56.5421 36.6245 55.9669 36.4079 55.4801 36.0511C55.1237 35.7893 54.8773 35.4044 54.7889 34.9711C54.7167 34.3734 54.7422 33.7678 54.8645 33.1783C54.9293 32.7247 55.0913 32.2819 55.1993 31.8283C55.2265 31.6349 55.2265 31.4386 55.1993 31.2451C55.1993 31.0183 55.0049 30.8779 54.8537 30.7375C54.3732 30.376 53.8639 30.0545 53.3309 29.7763C53.2693 29.74 53.2232 29.6824 53.2013 29.6143H53.1581Z" fill="white"/>
<path d="M84.2397 9.86128C81.9934 8.64088 72.0358 4.85008 58.417 4.32088C44.7982 3.79168 39.4521 6.88048 39.4521 6.88048C63.0609 2.73328 80.0386 13.5225 80.0494 14.1273C80.395 29.8197 71.4094 45.9333 71.4094 45.9333C70.642 45.3903 69.8412 44.8961 69.0118 44.4537C68.9847 44.5332 68.9485 44.6093 68.9037 44.6805C68.9197 44.8421 68.9197 45.0049 68.9037 45.1665C68.9261 45.4683 68.8292 45.7669 68.6338 45.9981L68.3854 46.2141C69.8306 47.3817 70.8546 48.9898 71.3013 50.7933C84.9093 36.5049 84.8338 12.3993 84.8877 11.2113C84.9417 10.0233 84.5205 10.0341 84.2397 9.86128Z" fill="white"/>
</svg>

